<!DOCTYPE svg PUBLIC "-//W3C//DTD SVG 20010904//EN" "http://www.w3.org/TR/2001/REC-SVG-20010904/DTD/svg10.dtd">
<svg version="1.0" xmlns="http://www.w3.org/2000/svg" width="224px" height="224px" viewBox="0 0 2240 2240" preserveAspectRatio="xMidYMid meet">
<g id="layer101" fill="#1f586a" stroke="none">
 <path d="M1015 2229 c-413 -44 -752 -288 -913 -655 -184 -418 -98 -907 214 -1227 169 -172 389 -289 619 -328 90 -15 280 -15 370 0 167 28 360 113 496 217 349 268 507 726 399 1154 -83 325 -293 581 -607 739 -152 76 -402 119 -578 100z"/>
 </g>
<g id="layer102" fill="#517c8c" stroke="none">
 <path d="M287 1373 c-11 -11 -8 -51 5 -59 8 -5 9 -1 5 12 -7 18 -7 18 8 0 19 -25 20 -7 2 28 -8 14 -17 23 -20 19z"/>
 <path d="M614 1348 c3 -17 6 -34 6 -39 0 -13 27 -11 35 2 12 18 -4 56 -26 62 -19 5 -21 3 -15 -25z m34 -11 c5 -24 -15 -21 -21 4 -3 13 -1 19 6 16 7 -2 13 -11 15 -20z"/>
 <path d="M1037 1366 c-3 -8 -3 -24 0 -37 6 -22 7 -22 14 -3 7 16 8 17 8 2 1 -10 6 -18 11 -18 6 0 3 14 -6 33 -21 41 -21 40 -27 23z"/>
 <path d="M1717 1373 c-4 -6 2 -18 13 -28 11 -10 17 -21 15 -26 -3 -4 -1 -10 4 -13 15 -9 23 12 11 26 -6 7 -17 22 -24 32 -8 11 -16 15 -19 9z"/>
 <path d="M347 1363 c-9 -15 13 -53 29 -53 15 0 15 2 -2 21 -16 17 -16 22 -4 29 13 8 12 10 -2 10 -9 0 -19 -3 -21 -7z"/>
 <path d="M420 1356 c1 -6 6 -21 13 -33 9 -17 16 -20 27 -12 13 8 12 11 -4 24 -10 7 -16 18 -12 23 3 5 -1 9 -9 9 -8 0 -15 -5 -15 -11z"/>
 <path d="M690 1352 c0 -19 18 -42 33 -42 5 0 2 11 -7 24 -12 18 -12 26 -3 29 7 3 5 6 -5 6 -11 1 -18 -6 -18 -17z"/>
 <path d="M810 1358 c0 -41 24 -64 33 -30 4 16 5 16 6 0 0 -10 5 -18 10 -18 13 0 -3 53 -17 58 -7 2 -12 -2 -12 -10 0 -10 -3 -9 -10 2 -8 13 -10 13 -10 -2z"/>
 <path d="M890 1345 c0 -14 7 -28 15 -32 22 -8 28 2 21 32 -8 33 -36 33 -36 0z m30 -11 c0 -8 -4 -12 -10 -9 -5 3 -10 13 -10 21 0 8 5 12 10 9 6 -3 10 -13 10 -21z"/>
 <path d="M960 1346 c0 -14 4 -27 9 -30 4 -3 8 8 7 24 -1 36 -16 41 -16 6z"/>
 <path d="M1100 1356 c0 -26 12 -46 27 -46 13 0 13 3 -1 24 -12 18 -12 26 -3 29 7 3 5 6 -5 6 -10 1 -18 -5 -18 -13z"/>
 <path d="M1170 1362 c0 -14 37 -58 44 -51 3 3 1 18 -3 35 -5 16 -10 23 -10 15 -1 -11 -4 -11 -16 -1 -9 7 -15 8 -15 2z"/>
 <path d="M1246 1361 c-6 -9 9 -61 17 -61 2 0 3 16 3 35 -1 34 -9 44 -20 26z"/>
 <path d="M1321 1356 c5 -6 9 -19 10 -30 0 -12 3 -15 6 -8 2 6 8 10 11 8 4 -2 7 6 7 17 0 16 -6 22 -22 22 -14 0 -18 -3 -12 -9z"/>
 <path d="M1442 1339 c6 -16 13 -28 15 -25 8 8 -6 56 -17 56 -5 0 -5 -13 2 -31z"/>
 <path d="M1471 1355 c0 -11 4 -27 9 -35 9 -13 10 -13 9 0 0 8 -4 24 -9 35 l-9 20 0 -20z"/>
 <path d="M1510 1355 c0 -7 8 -23 19 -36 l18 -23 8 23 c7 24 -4 43 -30 47 -8 1 -15 -4 -15 -11z"/>
 <path d="M1580 1364 c0 -1 4 -14 10 -28 9 -25 40 -37 40 -16 0 6 -4 10 -10 10 -5 0 -10 8 -10 18 0 10 -7 19 -15 19 -8 0 -15 -2 -15 -3z"/>
 <path d="M1666 1343 c7 -31 12 -38 18 -32 7 7 -6 59 -15 59 -5 0 -6 -12 -3 -27z"/>
 <path d="M1790 1352 c0 -10 6 -26 13 -36 18 -25 38 -1 26 32 -10 26 -39 30 -39 4z m30 -14 c0 -19 -2 -20 -10 -8 -13 19 -13 30 0 30 6 0 10 -10 10 -22z"/>
 <path d="M1865 1350 c2 -14 5 -28 5 -32 0 -19 20 -5 21 15 1 20 2 20 6 2 3 -11 9 -24 15 -30 6 -7 7 0 2 20 -9 39 -22 54 -33 36 -7 -11 -10 -11 -15 0 -3 8 -4 3 -1 -11z"/>
 <path d="M1942 1335 c2 -13 12 -21 28 -22 15 -2 19 0 10 4 -8 3 -21 13 -28 22 -11 14 -12 14 -10 -4z"/>
 <path d="M505 1320 c22 -24 35 -26 35 -4 0 8 -4 13 -9 9 -5 -3 -12 -1 -16 5 -3 5 -11 10 -17 10 -6 0 -3 -9 7 -20z"/>
 <path d="M639 1188 c-5 -19 -4 -181 2 -190 16 -25 44 6 44 48 1 22 5 51 9 67 9 31 -14 77 -39 77 -8 0 -15 -1 -16 -2z m32 -80 c-9 -20 -10 -18 -10 17 0 31 2 36 9 23 6 -10 7 -25 1 -40z"/>
 <path d="M767 1184 c-4 -4 -7 -49 -7 -100 0 -93 10 -119 33 -94 9 10 9 14 0 17 -7 3 -13 17 -13 33 0 16 6 31 13 34 10 5 10 7 0 12 -20 9 -17 74 3 74 9 0 14 6 12 13 -5 14 -31 21 -41 11z"/>
 <path d="M879 1188 c-6 -21 -9 -183 -3 -196 9 -20 22 47 23 120 1 26 6 48 13 50 15 5 1 28 -18 28 -8 0 -14 -1 -15 -2z"/>
 <path d="M987 1184 c-11 -12 -8 -204 3 -204 6 0 10 37 10 90 0 75 3 90 16 90 9 0 14 6 12 13 -5 14 -31 21 -41 11z"/>
 <path d="M1096 1182 c-2 -4 -6 -47 -7 -96 -2 -91 9 -123 34 -97 10 11 10 14 0 18 -7 3 -13 17 -13 33 0 16 6 31 13 34 10 5 10 7 0 12 -19 8 -16 71 3 78 8 3 12 10 9 16 -7 12 -32 13 -39 2z"/>
 <path d="M1200 1091 c0 -55 4 -102 10 -106 17 -10 41 40 32 66 -6 16 -5 40 5 73 10 33 11 52 4 59 -7 7 -12 1 -16 -19 -11 -49 -13 -51 -14 -11 -1 20 -5 37 -11 37 -6 0 -10 -40 -10 -99z"/>
 <path d="M1314 1179 c-4 -7 -3 -14 4 -17 10 -3 10 -38 -3 -139 -2 -23 1 -32 14 -36 15 -3 17 4 17 52 -1 31 1 76 4 101 4 36 2 45 -12 48 -9 2 -20 -3 -24 -9z"/>
 <path d="M1567 1183 c-4 -3 -7 -48 -7 -99 0 -93 10 -119 33 -94 9 10 9 14 0 17 -7 3 -13 17 -13 33 0 16 6 31 13 34 10 5 10 7 0 12 -19 8 -16 71 3 78 8 3 12 10 9 16 -7 11 -28 13 -38 3z"/>
 <path d="M1392 1144 c-14 -10 -22 -25 -21 -42 2 -24 2 -25 6 -4 4 19 36 42 59 42 2 0 4 -31 4 -70 0 -40 4 -70 10 -70 6 0 10 33 10 80 0 77 -1 80 -23 80 -12 0 -33 -7 -45 -16z"/>
 <path d="M1470 1152 c0 -5 11 -14 25 -20 15 -7 25 -20 25 -32 0 -11 5 -20 10 -20 18 0 10 31 -15 55 -24 25 -45 32 -45 17z"/>
 <path d="M875 795 c-44 -16 -105 -75 -105 -102 0 -14 5 -11 18 9 43 71 151 74 362 13 69 -20 143 -39 165 -42 43 -6 134 19 147 40 12 19 9 32 -4 19 -20 -20 -88 -14 -188 18 -188 60 -313 74 -395 45z"/>
 <path d="M851 714 c-37 -31 -40 -62 -7 -93 33 -31 85 -43 136 -32 36 8 86 39 77 47 -2 2 -30 -1 -62 -6 -65 -11 -143 3 -152 27 -3 7 1 20 8 29 19 23 89 13 219 -31 58 -20 130 -38 160 -41 71 -8 162 11 186 38 19 20 19 21 -6 12 -53 -17 -174 1 -333 51 -107 34 -185 34 -226 -1z"/>
 </g>
<g id="layer103" fill="#70939f" stroke="none">
 <path d="M640 1085 c0 -74 3 -95 14 -95 25 0 40 29 30 58 -7 19 -6 35 3 54 17 32 0 78 -29 78 -16 0 -18 -9 -18 -95z m40 47 c0 -9 -5 -24 -10 -32 -7 -11 -10 -5 -10 23 0 23 4 36 10 32 6 -3 10 -14 10 -23z"/>
 <path d="M760 1085 c0 -90 1 -95 21 -95 16 0 19 3 11 13 -13 15 -14 157 -1 157 5 0 9 5 9 10 0 6 -9 10 -20 10 -19 0 -20 -7 -20 -95z"/>
 <path d="M876 1088 c-5 -82 -3 -109 8 -97 2 2 6 39 9 82 4 44 11 85 18 93 9 11 8 14 -8 14 -18 0 -21 -9 -27 -92z"/>
 <path d="M987 1173 c-10 -18 -8 -183 2 -183 7 0 11 32 11 85 0 50 4 85 10 85 6 0 10 5 10 10 0 12 -27 14 -33 3z"/>
 <path d="M1090 1085 c0 -71 3 -95 13 -95 10 0 12 20 10 85 -2 53 0 85 7 85 5 0 10 5 10 10 0 6 -9 10 -20 10 -19 0 -20 -7 -20 -95z"/>
 <path d="M1200 1084 c0 -86 2 -95 18 -92 14 3 17 15 18 63 1 33 7 73 13 89 6 16 9 31 6 34 -8 9 -17 -5 -25 -40 l-8 -33 -1 38 c-1 20 -5 37 -11 37 -6 0 -10 -39 -10 -96z"/>
 <path d="M1323 1085 c-2 -70 0 -95 10 -95 8 0 12 20 12 67 0 38 3 80 8 96 6 22 4 27 -10 27 -16 0 -18 -12 -20 -95z"/>
 <path d="M1560 1085 c0 -71 3 -95 13 -95 10 0 12 20 10 85 -2 53 0 85 7 85 5 0 10 5 10 10 0 6 -9 10 -20 10 -19 0 -20 -7 -20 -95z"/>
 <path d="M1420 1150 c-13 -8 -12 -10 3 -10 14 0 17 -9 18 -47 1 -41 2 -43 8 -18 7 33 2 85 -8 85 -3 0 -13 -5 -21 -10z"/>
 <path d="M905 801 c-47 -12 -91 -38 -114 -67 -28 -36 -27 -56 2 -22 12 14 32 31 44 37 34 17 153 13 234 -9 41 -11 117 -31 169 -45 86 -24 100 -25 147 -14 29 7 60 20 69 31 19 21 15 23 -18 7 -26 -11 -61 -4 -247 50 -107 32 -234 46 -286 32z"/>
 <path d="M863 721 c-52 -33 -53 -79 -1 -115 31 -22 122 -21 159 1 31 19 40 39 12 28 -68 -26 -184 -8 -191 29 -10 49 63 47 220 -5 147 -49 256 -57 321 -25 40 20 51 41 15 27 -36 -13 -165 6 -273 40 -131 41 -218 48 -262 20z"/>
 </g>
<g id="layer104" fill="#a1c0cc" stroke="none">
 <path d="M640 1085 c0 -52 4 -95 9 -95 13 0 41 29 41 41 0 6 -5 19 -10 29 -7 13 -7 21 0 25 14 9 13 68 -2 83 -30 30 -38 14 -38 -83z m38 46 c2 -13 -1 -28 -6 -33 -6 -6 -11 3 -14 26 -4 40 15 46 20 7z m-8 -96 c0 -14 -4 -25 -10 -25 -5 0 -10 11 -10 25 0 14 5 25 10 25 6 0 10 -11 10 -25z"/>
 <path d="M764 1167 c-9 -24 1 -170 11 -174 7 -2 10 26 8 84 -3 62 0 89 9 95 10 5 8 8 -5 8 -10 0 -20 -6 -23 -13z"/>
 <path d="M882 1083 l2 -98 3 88 c2 48 8 87 13 87 6 0 10 5 10 10 0 6 -7 10 -15 10 -12 0 -15 -17 -13 -97z"/>
 <path d="M986 1128 c-9 -80 -7 -140 4 -133 6 3 10 41 10 84 0 46 5 82 12 89 9 9 9 12 -4 12 -11 0 -17 -14 -22 -52z"/>
 <path d="M1090 1091 c0 -83 10 -116 28 -96 4 4 1 10 -6 12 -6 3 -9 9 -6 15 4 6 6 40 6 77 -1 41 3 68 11 73 8 5 4 8 -10 8 -22 0 -23 -3 -23 -89z"/>
 <path d="M1202 1088 c2 -75 6 -93 18 -93 11 0 15 13 16 55 1 30 4 73 7 95 l7 40 -14 -40 -14 -40 -1 32 c-1 17 -6 35 -11 38 -7 5 -10 -24 -8 -87z"/>
 <path d="M1325 1085 c0 -57 4 -95 10 -95 6 0 10 38 10 95 0 57 -4 95 -10 95 -6 0 -10 -38 -10 -95z"/>
 <path d="M1562 1088 c2 -52 7 -93 13 -95 7 -2 10 28 8 88 -3 60 0 88 7 84 5 -3 10 -1 10 4 0 6 -9 11 -20 11 -20 0 -21 -5 -18 -92z"/>
 <path d="M918 800 c-55 -10 -113 -42 -130 -73 -10 -19 -7 -18 21 5 58 50 146 47 348 -13 154 -45 188 -49 244 -33 59 18 72 34 22 27 -26 -3 -72 6 -148 30 -170 54 -277 71 -357 57z"/>
 <path d="M871 724 c-98 -51 -28 -145 96 -131 25 3 52 12 61 20 14 14 10 15 -40 10 -102 -10 -170 16 -148 58 17 31 89 24 229 -21 136 -44 240 -53 306 -26 39 16 47 32 13 23 -36 -10 -172 12 -275 44 -127 39 -197 45 -242 23z"/>
 </g>
<g id="layer105" fill="#e4f1f6" stroke="none">
 <path d="M643 1085 c0 -49 2 -73 4 -52 2 20 10 37 16 37 9 0 9 2 0 8 -6 4 -13 28 -16 52 -2 25 -4 5 -4 -45z"/>
 <path d="M884 1085 c0 -49 1 -71 3 -48 2 23 2 64 0 90 -2 26 -3 8 -3 -42z"/>
 <path d="M993 1115 c0 -33 2 -45 4 -27 2 18 2 45 0 60 -2 15 -4 0 -4 -33z"/>
 <path d="M1333 1115 c0 -33 2 -45 4 -27 2 18 2 45 0 60 -2 15 -4 0 -4 -33z"/>
 <path d="M1210 1075 c0 -8 5 -15 10 -15 6 0 10 7 10 15 0 8 -4 15 -10 15 -5 0 -10 -7 -10 -15z"/>
 <path d="M895 793 c-11 -3 -27 -11 -36 -17 -13 -9 -1 -11 55 -8 53 3 95 -3 166 -23 240 -65 257 -69 302 -58 47 11 45 12 -52 37 -36 9 -105 28 -155 42 -87 24 -238 39 -280 27z"/>
 <path d="M875 721 c-14 -6 -6 -9 33 -14 29 -3 102 -22 163 -42 132 -42 207 -52 269 -34 l45 13 -74 8 c-41 4 -109 17 -150 29 -156 45 -176 49 -221 48 -25 0 -54 -4 -65 -8z"/>
 <path d="M859 619 c26 -21 124 -27 151 -9 11 7 0 9 -35 4 -33 -4 -65 -1 -95 10 l-45 15 24 -20z"/>
 </g>

</svg>